<svg width="16" height="20" viewBox="0 0 16 20" fill="none" xmlns="http://www.w3.org/2000/svg">
<path fill-rule="evenodd" clip-rule="evenodd" d="M3.19688 0.400391C2.56036 0.400391 1.94991 0.653247 1.49982 1.10333C1.04973 1.55342 0.796875 2.16387 0.796875 2.80039V17.2004C0.796875 17.8369 1.04973 18.4474 1.49982 18.8974C1.94991 19.3475 2.56036 19.6004 3.19688 19.6004H12.7969C13.4334 19.6004 14.0438 19.3475 14.4939 18.8974C14.944 18.4474 15.1969 17.8369 15.1969 17.2004V6.89719C15.1967 6.26072 14.9438 5.65037 14.4937 5.20039L10.3969 1.10359C9.94689 0.653472 9.33654 0.400527 8.70008 0.400391H3.19688ZM5.59688 12.4004C5.59688 12.0821 5.47045 11.7769 5.2454 11.5519C5.02036 11.3268 4.71513 11.2004 4.39688 11.2004C4.07862 11.2004 3.77339 11.3268 3.54835 11.5519C3.3233 11.7769 3.19688 12.0821 3.19688 12.4004V16.0004C3.19688 16.3187 3.3233 16.6239 3.54835 16.8489C3.77339 17.074 4.07862 17.2004 4.39688 17.2004C4.71513 17.2004 5.02036 17.074 5.2454 16.8489C5.47045 16.6239 5.59688 16.3187 5.59688 16.0004V12.4004ZM7.99688 8.80039C8.31514 8.80039 8.62036 8.92682 8.8454 9.15186C9.07045 9.37691 9.19688 9.68213 9.19688 10.0004V16.0004C9.19688 16.3187 9.07045 16.6239 8.8454 16.8489C8.62036 17.074 8.31514 17.2004 7.99688 17.2004C7.67862 17.2004 7.37339 17.074 7.14835 16.8489C6.9233 16.6239 6.79688 16.3187 6.79688 16.0004V10.0004C6.79688 9.68213 6.9233 9.37691 7.14835 9.15186C7.37339 8.92682 7.67862 8.80039 7.99688 8.80039ZM12.7969 7.60039C12.7969 7.28213 12.6704 6.97691 12.4454 6.75186C12.2204 6.52682 11.9151 6.40039 11.5969 6.40039C11.2786 6.40039 10.9734 6.52682 10.7483 6.75186C10.5233 6.97691 10.3969 7.28213 10.3969 7.60039V16.0004C10.3969 16.3187 10.5233 16.6239 10.7483 16.8489C10.9734 17.074 11.2786 17.2004 11.5969 17.2004C11.9151 17.2004 12.2204 17.074 12.4454 16.8489C12.6704 16.6239 12.7969 16.3187 12.7969 16.0004V7.60039Z" fill="#D1D5DB"/>
</svg>
