<svg width="11" height="14" viewBox="0 0 11 14" fill="none" xmlns="http://www.w3.org/2000/svg">
<path fill-rule="evenodd" clip-rule="evenodd" d="M0.554688 2.19961C0.554688 1.77526 0.723258 1.3683 1.02332 1.06824C1.32337 0.76818 1.73034 0.599609 2.15469 0.599609H5.82349C6.2478 0.5997 6.6547 0.76833 6.95469 1.06841L9.68589 3.79961C9.98596 4.0996 10.1546 4.5065 10.1547 4.93081V11.7996C10.1547 12.224 9.98611 12.6309 9.68606 12.931C9.386 13.231 8.97903 13.3996 8.55469 13.3996H2.15469C1.73034 13.3996 1.32337 13.231 1.02332 12.931C0.723258 12.6309 0.554688 12.224 0.554688 11.7996V2.19961ZM2.15469 6.99961C2.15469 6.78744 2.23897 6.58395 2.389 6.43392C2.53903 6.28389 2.74251 6.19961 2.95469 6.19961H7.75469C7.96686 6.19961 8.17034 6.28389 8.32037 6.43392C8.4704 6.58395 8.55469 6.78744 8.55469 6.99961C8.55469 7.21178 8.4704 7.41527 8.32037 7.56529C8.17034 7.71532 7.96686 7.79961 7.75469 7.79961H2.95469C2.74251 7.79961 2.53903 7.71532 2.389 7.56529C2.23897 7.41527 2.15469 7.21178 2.15469 6.99961ZM2.95469 9.39961C2.74251 9.39961 2.53903 9.48389 2.389 9.63392C2.23897 9.78395 2.15469 9.98744 2.15469 10.1996C2.15469 10.4118 2.23897 10.6153 2.389 10.7653C2.53903 10.9153 2.74251 10.9996 2.95469 10.9996H7.75469C7.96686 10.9996 8.17034 10.9153 8.32037 10.7653C8.4704 10.6153 8.55469 10.4118 8.55469 10.1996C8.55469 9.98744 8.4704 9.78395 8.32037 9.63392C8.17034 9.48389 7.96686 9.39961 7.75469 9.39961H2.95469Z" fill="#6B7280"/>
</svg>
