<svg width="22" height="19" viewBox="0 0 22 19" fill="none" xmlns="http://www.w3.org/2000/svg">
<path d="M14.6031 4.08047C14.6031 5.03525 14.2238 5.95092 13.5487 6.62605C12.8736 7.30118 11.9579 7.68047 11.0031 7.68047C10.0483 7.68047 9.13267 7.30118 8.45754 6.62605C7.78241 5.95092 7.40313 5.03525 7.40313 4.08047C7.40313 3.12569 7.78241 2.21002 8.45754 1.53488C9.13267 0.859754 10.0483 0.480469 11.0031 0.480469C11.9579 0.480469 12.8736 0.859754 13.5487 1.53488C14.2238 2.21002 14.6031 3.12569 14.6031 4.08047ZM20.6031 6.48047C20.6031 7.11699 20.3503 7.72744 19.9002 8.17753C19.4501 8.62761 18.8396 8.88047 18.2031 8.88047C17.5666 8.88047 16.9562 8.62761 16.5061 8.17753C16.056 7.72744 15.8031 7.11699 15.8031 6.48047C15.8031 5.84395 16.056 5.2335 16.5061 4.78341C16.9562 4.33333 17.5666 4.08047 18.2031 4.08047C18.8396 4.08047 19.4501 4.33333 19.9002 4.78341C20.3503 5.2335 20.6031 5.84395 20.6031 6.48047ZM15.8031 14.8805C15.8031 13.6074 15.2974 12.3865 14.3972 11.4864C13.4971 10.5862 12.2762 10.0805 11.0031 10.0805C9.73009 10.0805 8.50919 10.5862 7.60901 11.4864C6.70884 12.3865 6.20312 13.6074 6.20312 14.8805V18.4805H15.8031V14.8805ZM6.20312 6.48047C6.20312 7.11699 5.95027 7.72744 5.50018 8.17753C5.05009 8.62761 4.43964 8.88047 3.80313 8.88047C3.16661 8.88047 2.55616 8.62761 2.10607 8.17753C1.65598 7.72744 1.40313 7.11699 1.40313 6.48047C1.40313 5.84395 1.65598 5.2335 2.10607 4.78341C2.55616 4.33333 3.16661 4.08047 3.80313 4.08047C4.43964 4.08047 5.05009 4.33333 5.50018 4.78341C5.95027 5.2335 6.20312 5.84395 6.20312 6.48047ZM18.2031 18.4805V14.8805C18.2049 13.6604 17.8951 12.4601 17.3031 11.3933C17.8351 11.2571 18.3912 11.2443 18.929 11.3557C19.4667 11.4672 19.9719 11.7 20.4059 12.0364C20.84 12.3727 21.1915 12.8038 21.4337 13.2967C21.6758 13.7896 21.8022 14.3313 21.8031 14.8805V18.4805H18.2031ZM4.70312 11.3933C4.11122 12.4601 3.80144 13.6604 3.80313 14.8805V18.4805H0.203125V14.8805C0.202894 14.3309 0.328481 13.7886 0.570261 13.2951C0.812042 12.8016 1.1636 12.37 1.59799 12.0334C2.03237 11.6967 2.53806 11.464 3.0763 11.3531C3.61453 11.2421 4.17102 11.2559 4.70312 11.3933Z" fill="#D1D5DB"/>
</svg>
